<svg xmlns="http://www.w3.org/2000/svg" version="1.1" xmlns:xlink="http://www.w3.org/1999/xlink" xmlns:svgjs="http://svgjs.com/svgjs" width="1440" height="560" preserveAspectRatio="none" viewBox="0 0 1440 560">
    <g mask="url(&quot;#SvgjsMask1318&quot;)" fill="none">
        <rect width="1440" height="560" x="0" y="0" fill="rgba(48, 48, 48, 1)"></rect>
        <use xlink:href="#SvgjsSymbol1325" x="0" y="0"></use>
        <use xlink:href="#SvgjsSymbol1325" x="720" y="0"></use>
    </g>
    <defs>
        <mask id="SvgjsMask1318">
            <rect width="1440" height="560" fill="#ffffff"></rect>
        </mask>
        <path d="M-1 0 a1 1 0 1 0 2 0 a1 1 0 1 0 -2 0z" id="SvgjsPath1321"></path>
        <path d="M-3 0 a3 3 0 1 0 6 0 a3 3 0 1 0 -6 0z" id="SvgjsPath1319"></path>
        <path d="M-5 0 a5 5 0 1 0 10 0 a5 5 0 1 0 -10 0z" id="SvgjsPath1322"></path>
        <path d="M2 -2 L-2 2z" id="SvgjsPath1323"></path>
        <path d="M6 -6 L-6 6z" id="SvgjsPath1320"></path>
        <path d="M30 -30 L-30 30z" id="SvgjsPath1324"></path>
    </defs>
    <symbol id="SvgjsSymbol1325">
        <use xlink:href="#SvgjsPath1319" x="30" y="30" stroke="rgba(1, 2, 5, 1)"></use>
        <use xlink:href="#SvgjsPath1320" x="30" y="90" stroke="rgba(1, 2, 5, 1)"></use>
        <use xlink:href="#SvgjsPath1321" x="30" y="150" stroke="rgba(1, 2, 5, 1)"></use>
        <use xlink:href="#SvgjsPath1322" x="30" y="210" stroke="rgba(1, 2, 5, 1)"></use>
        <use xlink:href="#SvgjsPath1323" x="30" y="270" stroke="rgba(1, 2, 5, 1)"></use>
        <use xlink:href="#SvgjsPath1324" x="30" y="330" stroke="rgba(1, 2, 5, 1)" stroke-width="3"></use>
        <use xlink:href="#SvgjsPath1324" x="30" y="390" stroke="rgba(1, 2, 5, 1)" stroke-width="3"></use>
        <use xlink:href="#SvgjsPath1322" x="30" y="450" stroke="rgba(1, 2, 5, 1)"></use>
        <use xlink:href="#SvgjsPath1322" x="30" y="510" stroke="rgba(1, 2, 5, 1)"></use>
        <use xlink:href="#SvgjsPath1322" x="30" y="570" stroke="rgba(1, 2, 5, 1)"></use>
        <use xlink:href="#SvgjsPath1323" x="90" y="30" stroke="rgba(1, 2, 5, 1)"></use>
        <use xlink:href="#SvgjsPath1322" x="90" y="90" stroke="rgba(1, 2, 5, 1)"></use>
        <use xlink:href="#SvgjsPath1322" x="90" y="150" stroke="rgba(1, 2, 5, 1)"></use>
        <use xlink:href="#SvgjsPath1320" x="90" y="210" stroke="rgba(1, 2, 5, 1)"></use>
        <use xlink:href="#SvgjsPath1320" x="90" y="270" stroke="rgba(1, 2, 5, 1)"></use>
        <use xlink:href="#SvgjsPath1323" x="90" y="330" stroke="rgba(1, 2, 5, 1)"></use>
        <use xlink:href="#SvgjsPath1320" x="90" y="390" stroke="rgba(1, 2, 5, 1)"></use>
        <use xlink:href="#SvgjsPath1322" x="90" y="450" stroke="rgba(1, 2, 5, 1)"></use>
        <use xlink:href="#SvgjsPath1321" x="90" y="510" stroke="rgba(1, 2, 5, 1)"></use>
        <use xlink:href="#SvgjsPath1322" x="90" y="570" stroke="rgba(1, 2, 5, 1)"></use>
        <use xlink:href="#SvgjsPath1320" x="150" y="30" stroke="rgba(1, 2, 5, 1)"></use>
        <use xlink:href="#SvgjsPath1322" x="150" y="90" stroke="rgba(1, 2, 5, 1)"></use>
        <use xlink:href="#SvgjsPath1320" x="150" y="150" stroke="rgba(1, 2, 5, 1)"></use>
        <use xlink:href="#SvgjsPath1323" x="150" y="210" stroke="rgba(1, 2, 5, 1)"></use>
        <use xlink:href="#SvgjsPath1323" x="150" y="270" stroke="rgba(1, 2, 5, 1)"></use>
        <use xlink:href="#SvgjsPath1319" x="150" y="330" stroke="rgba(1, 2, 5, 1)"></use>
        <use xlink:href="#SvgjsPath1322" x="150" y="390" stroke="rgba(1, 2, 5, 1)"></use>
        <use xlink:href="#SvgjsPath1322" x="150" y="450" stroke="rgba(1, 2, 5, 1)"></use>
        <use xlink:href="#SvgjsPath1323" x="150" y="510" stroke="rgba(1, 2, 5, 1)"></use>
        <use xlink:href="#SvgjsPath1322" x="150" y="570" stroke="rgba(1, 2, 5, 1)"></use>
        <use xlink:href="#SvgjsPath1322" x="210" y="30" stroke="rgba(1, 2, 5, 1)"></use>
        <use xlink:href="#SvgjsPath1322" x="210" y="90" stroke="rgba(1, 2, 5, 1)"></use>
        <use xlink:href="#SvgjsPath1321" x="210" y="150" stroke="rgba(1, 2, 5, 1)"></use>
        <use xlink:href="#SvgjsPath1321" x="210" y="210" stroke="rgba(1, 2, 5, 1)"></use>
        <use xlink:href="#SvgjsPath1323" x="210" y="270" stroke="rgba(1, 2, 5, 1)"></use>
        <use xlink:href="#SvgjsPath1323" x="210" y="330" stroke="rgba(1, 2, 5, 1)"></use>
        <use xlink:href="#SvgjsPath1319" x="210" y="390" stroke="rgba(1, 2, 5, 1)"></use>
        <use xlink:href="#SvgjsPath1322" x="210" y="450" stroke="rgba(1, 2, 5, 1)"></use>
        <use xlink:href="#SvgjsPath1322" x="210" y="510" stroke="rgba(1, 2, 5, 1)"></use>
        <use xlink:href="#SvgjsPath1323" x="210" y="570" stroke="rgba(1, 2, 5, 1)"></use>
        <use xlink:href="#SvgjsPath1320" x="270" y="30" stroke="rgba(1, 2, 5, 1)"></use>
        <use xlink:href="#SvgjsPath1324" x="270" y="90" stroke="rgba(1, 2, 5, 1)" stroke-width="3"></use>
        <use xlink:href="#SvgjsPath1323" x="270" y="150" stroke="rgba(1, 2, 5, 1)"></use>
        <use xlink:href="#SvgjsPath1322" x="270" y="210" stroke="rgba(1, 2, 5, 1)"></use>
        <use xlink:href="#SvgjsPath1323" x="270" y="270" stroke="rgba(1, 2, 5, 1)"></use>
        <use xlink:href="#SvgjsPath1322" x="270" y="330" stroke="rgba(1, 2, 5, 1)"></use>
        <use xlink:href="#SvgjsPath1320" x="270" y="390" stroke="rgba(1, 2, 5, 1)"></use>
        <use xlink:href="#SvgjsPath1322" x="270" y="450" stroke="rgba(1, 2, 5, 1)"></use>
        <use xlink:href="#SvgjsPath1321" x="270" y="510" stroke="rgba(1, 2, 5, 1)"></use>
        <use xlink:href="#SvgjsPath1320" x="270" y="570" stroke="rgba(1, 2, 5, 1)"></use>
        <use xlink:href="#SvgjsPath1322" x="330" y="30" stroke="rgba(1, 2, 5, 1)"></use>
        <use xlink:href="#SvgjsPath1323" x="330" y="90" stroke="rgba(1, 2, 5, 1)"></use>
        <use xlink:href="#SvgjsPath1322" x="330" y="150" stroke="rgba(1, 2, 5, 1)"></use>
        <use xlink:href="#SvgjsPath1322" x="330" y="210" stroke="rgba(1, 2, 5, 1)"></use>
        <use xlink:href="#SvgjsPath1319" x="330" y="270" stroke="rgba(1, 2, 5, 1)"></use>
        <use xlink:href="#SvgjsPath1320" x="330" y="330" stroke="rgba(1, 2, 5, 1)"></use>
        <use xlink:href="#SvgjsPath1321" x="330" y="390" stroke="rgba(1, 2, 5, 1)"></use>
        <use xlink:href="#SvgjsPath1320" x="330" y="450" stroke="rgba(1, 2, 5, 1)"></use>
        <use xlink:href="#SvgjsPath1324" x="330" y="510" stroke="rgba(1, 2, 5, 1)" stroke-width="3"></use>
        <use xlink:href="#SvgjsPath1322" x="330" y="570" stroke="rgba(1, 2, 5, 1)"></use>
        <use xlink:href="#SvgjsPath1320" x="390" y="30" stroke="rgba(1, 2, 5, 1)"></use>
        <use xlink:href="#SvgjsPath1322" x="390" y="90" stroke="rgba(1, 2, 5, 1)"></use>
        <use xlink:href="#SvgjsPath1320" x="390" y="150" stroke="rgba(1, 2, 5, 1)"></use>
        <use xlink:href="#SvgjsPath1322" x="390" y="210" stroke="rgba(1, 2, 5, 1)"></use>
        <use xlink:href="#SvgjsPath1320" x="390" y="270" stroke="rgba(1, 2, 5, 1)"></use>
        <use xlink:href="#SvgjsPath1323" x="390" y="330" stroke="rgba(1, 2, 5, 1)"></use>
        <use xlink:href="#SvgjsPath1320" x="390" y="390" stroke="rgba(1, 2, 5, 1)"></use>
        <use xlink:href="#SvgjsPath1323" x="390" y="450" stroke="rgba(1, 2, 5, 1)"></use>
        <use xlink:href="#SvgjsPath1320" x="390" y="510" stroke="rgba(1, 2, 5, 1)"></use>
        <use xlink:href="#SvgjsPath1321" x="390" y="570" stroke="rgba(1, 2, 5, 1)"></use>
        <use xlink:href="#SvgjsPath1324" x="450" y="30" stroke="rgba(1, 2, 5, 1)" stroke-width="3"></use>
        <use xlink:href="#SvgjsPath1322" x="450" y="90" stroke="rgba(1, 2, 5, 1)"></use>
        <use xlink:href="#SvgjsPath1322" x="450" y="150" stroke="rgba(1, 2, 5, 1)"></use>
        <use xlink:href="#SvgjsPath1320" x="450" y="210" stroke="rgba(1, 2, 5, 1)"></use>
        <use xlink:href="#SvgjsPath1319" x="450" y="270" stroke="rgba(1, 2, 5, 1)"></use>
        <use xlink:href="#SvgjsPath1320" x="450" y="330" stroke="rgba(1, 2, 5, 1)"></use>
        <use xlink:href="#SvgjsPath1320" x="450" y="390" stroke="rgba(1, 2, 5, 1)"></use>
        <use xlink:href="#SvgjsPath1320" x="450" y="450" stroke="rgba(1, 2, 5, 1)"></use>
        <use xlink:href="#SvgjsPath1322" x="450" y="510" stroke="rgba(1, 2, 5, 1)"></use>
        <use xlink:href="#SvgjsPath1324" x="450" y="570" stroke="rgba(1, 2, 5, 1)" stroke-width="3"></use>
        <use xlink:href="#SvgjsPath1323" x="510" y="30" stroke="rgba(1, 2, 5, 1)"></use>
        <use xlink:href="#SvgjsPath1319" x="510" y="90" stroke="rgba(1, 2, 5, 1)"></use>
        <use xlink:href="#SvgjsPath1320" x="510" y="150" stroke="rgba(1, 2, 5, 1)"></use>
        <use xlink:href="#SvgjsPath1323" x="510" y="210" stroke="rgba(1, 2, 5, 1)"></use>
        <use xlink:href="#SvgjsPath1324" x="510" y="270" stroke="rgba(1, 2, 5, 1)" stroke-width="3"></use>
        <use xlink:href="#SvgjsPath1322" x="510" y="330" stroke="rgba(1, 2, 5, 1)"></use>
        <use xlink:href="#SvgjsPath1322" x="510" y="390" stroke="rgba(1, 2, 5, 1)"></use>
        <use xlink:href="#SvgjsPath1319" x="510" y="450" stroke="rgba(1, 2, 5, 1)"></use>
        <use xlink:href="#SvgjsPath1319" x="510" y="510" stroke="rgba(1, 2, 5, 1)"></use>
        <use xlink:href="#SvgjsPath1320" x="510" y="570" stroke="rgba(1, 2, 5, 1)"></use>
        <use xlink:href="#SvgjsPath1322" x="570" y="30" stroke="rgba(1, 2, 5, 1)"></use>
        <use xlink:href="#SvgjsPath1321" x="570" y="90" stroke="rgba(1, 2, 5, 1)"></use>
        <use xlink:href="#SvgjsPath1322" x="570" y="150" stroke="rgba(1, 2, 5, 1)"></use>
        <use xlink:href="#SvgjsPath1324" x="570" y="210" stroke="rgba(1, 2, 5, 1)" stroke-width="3"></use>
        <use xlink:href="#SvgjsPath1323" x="570" y="270" stroke="rgba(1, 2, 5, 1)"></use>
        <use xlink:href="#SvgjsPath1320" x="570" y="330" stroke="rgba(1, 2, 5, 1)"></use>
        <use xlink:href="#SvgjsPath1319" x="570" y="390" stroke="rgba(1, 2, 5, 1)"></use>
        <use xlink:href="#SvgjsPath1323" x="570" y="450" stroke="rgba(1, 2, 5, 1)"></use>
        <use xlink:href="#SvgjsPath1321" x="570" y="510" stroke="rgba(1, 2, 5, 1)"></use>
        <use xlink:href="#SvgjsPath1322" x="570" y="570" stroke="rgba(1, 2, 5, 1)"></use>
        <use xlink:href="#SvgjsPath1322" x="630" y="30" stroke="rgba(1, 2, 5, 1)"></use>
        <use xlink:href="#SvgjsPath1320" x="630" y="90" stroke="rgba(1, 2, 5, 1)"></use>
        <use xlink:href="#SvgjsPath1320" x="630" y="150" stroke="rgba(1, 2, 5, 1)"></use>
        <use xlink:href="#SvgjsPath1322" x="630" y="210" stroke="rgba(1, 2, 5, 1)"></use>
        <use xlink:href="#SvgjsPath1320" x="630" y="270" stroke="rgba(1, 2, 5, 1)"></use>
        <use xlink:href="#SvgjsPath1324" x="630" y="330" stroke="rgba(1, 2, 5, 1)" stroke-width="3"></use>
        <use xlink:href="#SvgjsPath1320" x="630" y="390" stroke="rgba(1, 2, 5, 1)"></use>
        <use xlink:href="#SvgjsPath1321" x="630" y="450" stroke="rgba(1, 2, 5, 1)"></use>
        <use xlink:href="#SvgjsPath1321" x="630" y="510" stroke="rgba(1, 2, 5, 1)"></use>
        <use xlink:href="#SvgjsPath1320" x="630" y="570" stroke="rgba(1, 2, 5, 1)"></use>
        <use xlink:href="#SvgjsPath1322" x="690" y="30" stroke="rgba(1, 2, 5, 1)"></use>
        <use xlink:href="#SvgjsPath1319" x="690" y="90" stroke="rgba(1, 2, 5, 1)"></use>
        <use xlink:href="#SvgjsPath1323" x="690" y="150" stroke="rgba(1, 2, 5, 1)"></use>
        <use xlink:href="#SvgjsPath1321" x="690" y="210" stroke="rgba(1, 2, 5, 1)"></use>
        <use xlink:href="#SvgjsPath1319" x="690" y="270" stroke="rgba(1, 2, 5, 1)"></use>
        <use xlink:href="#SvgjsPath1320" x="690" y="330" stroke="rgba(1, 2, 5, 1)"></use>
        <use xlink:href="#SvgjsPath1324" x="690" y="390" stroke="rgba(1, 2, 5, 1)" stroke-width="3"></use>
        <use xlink:href="#SvgjsPath1322" x="690" y="450" stroke="rgba(1, 2, 5, 1)"></use>
        <use xlink:href="#SvgjsPath1322" x="690" y="510" stroke="rgba(1, 2, 5, 1)"></use>
        <use xlink:href="#SvgjsPath1323" x="690" y="570" stroke="rgba(1, 2, 5, 1)"></use>
    </symbol>
</svg>